<mxfile host="app.diagrams.net" modified="2021-04-12T07:35:03.430Z" agent="5.0 (Macintosh; Intel Mac OS X 11_2_3) AppleWebKit/537.36 (KHTML, like Gecko) Chrome/89.0.4389.114 Safari/537.36" etag="3URWSZODEwzez8cca6Rg" version="14.5.10" type="github">
  <diagram id="RUqUa4uMJxRUDKbFo6-b" name="Page-1">
    <mxGraphModel dx="1301" dy="1122" grid="1" gridSize="10" guides="1" tooltips="1" connect="1" arrows="1" fold="1" page="0" pageScale="1" pageWidth="827" pageHeight="1169" math="0" shadow="0">
      <root>
        <mxCell id="0" />
        <mxCell id="1" parent="0" />
        <mxCell id="y0aH20w7pRD61OkZ_pW8-1" value="" style="group" vertex="1" connectable="0" parent="1">
          <mxGeometry x="400" y="200" width="300" height="300" as="geometry" />
        </mxCell>
        <mxCell id="y0aH20w7pRD61OkZ_pW8-2" value="" style="rounded=1;whiteSpace=wrap;html=1;strokeWidth=2;" vertex="1" parent="y0aH20w7pRD61OkZ_pW8-1">
          <mxGeometry width="300" height="300" as="geometry" />
        </mxCell>
        <mxCell id="y0aH20w7pRD61OkZ_pW8-3" value="&lt;font style=&quot;font-size: 30px&quot;&gt;区块链&lt;br&gt;数据&lt;/font&gt;" style="ellipse;whiteSpace=wrap;html=1;aspect=fixed;" vertex="1" parent="y0aH20w7pRD61OkZ_pW8-1">
          <mxGeometry x="10" y="160" width="130" height="130" as="geometry" />
        </mxCell>
        <mxCell id="y0aH20w7pRD61OkZ_pW8-4" value="&lt;font style=&quot;font-size: 30px&quot;&gt;矿工&lt;/font&gt;" style="ellipse;whiteSpace=wrap;html=1;aspect=fixed;" vertex="1" parent="y0aH20w7pRD61OkZ_pW8-1">
          <mxGeometry x="160" y="10" width="130" height="130" as="geometry" />
        </mxCell>
        <mxCell id="y0aH20w7pRD61OkZ_pW8-5" value="&lt;font style=&quot;font-size: 30px&quot;&gt;P2P网络&lt;/font&gt;" style="ellipse;whiteSpace=wrap;html=1;aspect=fixed;" vertex="1" parent="y0aH20w7pRD61OkZ_pW8-1">
          <mxGeometry x="160" y="160" width="130" height="130" as="geometry" />
        </mxCell>
        <mxCell id="y0aH20w7pRD61OkZ_pW8-6" value="&lt;font style=&quot;font-size: 22px&quot;&gt;&lt;b&gt;中央银行&lt;/b&gt;&lt;/font&gt;" style="rounded=0;whiteSpace=wrap;html=1;shadow=0;glass=0;sketch=0;strokeWidth=3;dashed=1;" vertex="1" parent="y0aH20w7pRD61OkZ_pW8-1">
          <mxGeometry x="40" y="-30" width="120" height="60" as="geometry" />
        </mxCell>
        <mxCell id="y0aH20w7pRD61OkZ_pW8-27" value="" style="group;shadow=0;sketch=0;glass=0;" vertex="1" connectable="0" parent="1">
          <mxGeometry x="20" y="-210" width="300" height="350" as="geometry" />
        </mxCell>
        <mxCell id="y0aH20w7pRD61OkZ_pW8-28" value="" style="rounded=1;whiteSpace=wrap;html=1;strokeWidth=2;glass=0;" vertex="1" parent="y0aH20w7pRD61OkZ_pW8-27">
          <mxGeometry width="300" height="300" as="geometry" />
        </mxCell>
        <mxCell id="y0aH20w7pRD61OkZ_pW8-29" value="&lt;font style=&quot;font-size: 30px&quot;&gt;钱包&lt;/font&gt;" style="ellipse;whiteSpace=wrap;html=1;aspect=fixed;" vertex="1" parent="y0aH20w7pRD61OkZ_pW8-27">
          <mxGeometry x="10" y="10" width="130" height="130" as="geometry" />
        </mxCell>
        <mxCell id="y0aH20w7pRD61OkZ_pW8-30" value="&lt;font style=&quot;font-size: 30px&quot;&gt;P2P网络&lt;/font&gt;" style="ellipse;whiteSpace=wrap;html=1;aspect=fixed;" vertex="1" parent="y0aH20w7pRD61OkZ_pW8-27">
          <mxGeometry x="160" y="160" width="130" height="130" as="geometry" />
        </mxCell>
        <mxCell id="y0aH20w7pRD61OkZ_pW8-31" value="&lt;font style=&quot;font-size: 22px&quot;&gt;&lt;b&gt;轻节点钱包&lt;/b&gt;&lt;/font&gt;" style="rounded=0;whiteSpace=wrap;html=1;shadow=0;glass=0;sketch=0;strokeWidth=3;dashed=1;" vertex="1" parent="y0aH20w7pRD61OkZ_pW8-27">
          <mxGeometry x="40" y="270" width="120" height="60" as="geometry" />
        </mxCell>
        <mxCell id="y0aH20w7pRD61OkZ_pW8-40" value="" style="group;shadow=0;sketch=0;glass=0;" vertex="1" connectable="0" parent="1">
          <mxGeometry x="380" y="-200" width="300" height="350" as="geometry" />
        </mxCell>
        <mxCell id="y0aH20w7pRD61OkZ_pW8-41" value="" style="rounded=1;whiteSpace=wrap;html=1;strokeWidth=2;glass=0;" vertex="1" parent="y0aH20w7pRD61OkZ_pW8-40">
          <mxGeometry x="10" y="-10" width="300" height="300" as="geometry" />
        </mxCell>
        <mxCell id="y0aH20w7pRD61OkZ_pW8-42" value="&lt;font style=&quot;font-size: 30px&quot;&gt;钱包&lt;/font&gt;" style="ellipse;whiteSpace=wrap;html=1;aspect=fixed;" vertex="1" parent="y0aH20w7pRD61OkZ_pW8-40">
          <mxGeometry x="20" y="10" width="130" height="130" as="geometry" />
        </mxCell>
        <mxCell id="y0aH20w7pRD61OkZ_pW8-43" value="&lt;font style=&quot;font-size: 30px&quot;&gt;P2P网络&lt;/font&gt;" style="ellipse;whiteSpace=wrap;html=1;aspect=fixed;" vertex="1" parent="y0aH20w7pRD61OkZ_pW8-40">
          <mxGeometry x="170" y="150" width="130" height="130" as="geometry" />
        </mxCell>
        <mxCell id="y0aH20w7pRD61OkZ_pW8-44" value="&lt;font style=&quot;font-size: 22px&quot;&gt;&lt;b&gt;全节点钱包&lt;/b&gt;&lt;/font&gt;" style="rounded=0;whiteSpace=wrap;html=1;shadow=0;glass=0;sketch=0;strokeWidth=3;dashed=1;" vertex="1" parent="y0aH20w7pRD61OkZ_pW8-40">
          <mxGeometry x="150" y="-30" width="120" height="60" as="geometry" />
        </mxCell>
        <mxCell id="y0aH20w7pRD61OkZ_pW8-47" value="&lt;font style=&quot;font-size: 30px&quot;&gt;区块链&lt;br&gt;数据&lt;/font&gt;" style="ellipse;whiteSpace=wrap;html=1;aspect=fixed;" vertex="1" parent="y0aH20w7pRD61OkZ_pW8-40">
          <mxGeometry x="20" y="150" width="130" height="130" as="geometry" />
        </mxCell>
        <mxCell id="y0aH20w7pRD61OkZ_pW8-48" value="" style="group" vertex="1" connectable="0" parent="1">
          <mxGeometry x="30" y="200" width="300" height="300" as="geometry" />
        </mxCell>
        <mxCell id="y0aH20w7pRD61OkZ_pW8-49" value="" style="rounded=1;whiteSpace=wrap;html=1;strokeWidth=2;" vertex="1" parent="y0aH20w7pRD61OkZ_pW8-48">
          <mxGeometry width="300" height="300" as="geometry" />
        </mxCell>
        <mxCell id="y0aH20w7pRD61OkZ_pW8-50" value="&lt;font style=&quot;font-size: 30px&quot;&gt;区块链&lt;br&gt;数据&lt;/font&gt;" style="ellipse;whiteSpace=wrap;html=1;aspect=fixed;" vertex="1" parent="y0aH20w7pRD61OkZ_pW8-48">
          <mxGeometry x="10" y="160" width="130" height="130" as="geometry" />
        </mxCell>
        <mxCell id="y0aH20w7pRD61OkZ_pW8-51" value="&lt;font style=&quot;font-size: 30px&quot;&gt;P2P网络&lt;/font&gt;" style="ellipse;whiteSpace=wrap;html=1;aspect=fixed;" vertex="1" parent="y0aH20w7pRD61OkZ_pW8-48">
          <mxGeometry x="160" y="160" width="130" height="130" as="geometry" />
        </mxCell>
        <mxCell id="y0aH20w7pRD61OkZ_pW8-52" value="&lt;font style=&quot;font-size: 22px&quot;&gt;&lt;b&gt;商业银行&lt;/b&gt;&lt;/font&gt;" style="rounded=0;whiteSpace=wrap;html=1;shadow=0;glass=0;sketch=0;strokeWidth=3;dashed=1;" vertex="1" parent="y0aH20w7pRD61OkZ_pW8-48">
          <mxGeometry x="30" y="-30" width="120" height="60" as="geometry" />
        </mxCell>
      </root>
    </mxGraphModel>
  </diagram>
</mxfile>
